<?xml version="1.0" standalone="no"?>
<!DOCTYPE svg PUBLIC "-//W3C//DTD SVG 20010904//EN"
 "http://www.w3.org/TR/2001/REC-SVG-20010904/DTD/svg10.dtd">
<svg version="1.0" xmlns="http://www.w3.org/2000/svg"
 width="911.000000pt" height="611.000000pt" viewBox="0 0 911.000000 611.000000"
 preserveAspectRatio="xMidYMid meet">

<g transform="translate(0.000000,611.000000) scale(0.100000,-0.100000)"
fill="#000000" stroke="none">
<path d="M3325 5420 c-10 -11 -31 -20 -47 -20 -36 0 -83 -24 -92 -45 -3 -9 -6
-200 -6 -423 1 -304 4 -411 13 -423 28 -37 48 -39 426 -39 364 0 371 0 371
-20 0 -11 4 -20 10 -20 5 0 15 9 22 20 10 15 24 20 55 20 36 0 43 -3 43 -20 0
-11 6 -20 13 -20 8 0 22 9 32 20 16 18 31 20 127 20 113 0 159 12 172 45 3 9
6 200 6 424 l0 408 -26 24 -26 24 -519 3 c-508 3 -519 3 -519 22 0 26 -31 26
-55 0z"/>
<path d="M5735 5015 c-5 -3 -102 -20 -215 -39 -195 -33 -209 -34 -265 -20 -71
16 -117 17 -67 1 19 -6 41 -21 49 -34 61 -92 -200 -181 -284 -97 -18 18 -22
30 -17 47 13 44 -76 -56 -108 -121 -63 -128 -44 -302 43 -390 115 -118 279
-151 424 -87 55 24 316 75 381 75 44 -1 112 -36 126 -64 9 -21 15 -24 37 -18
163 45 272 -151 148 -267 -15 -13 -31 -20 -38 -16 -8 5 -10 4 -5 -3 4 -7 2
-12 -5 -12 -7 0 -9 8 -4 23 16 53 16 68 1 93 -14 20 -24 25 -49 22 -28 -3 -32
-7 -34 -33 -5 -61 -2 -88 14 -118 16 -30 42 -260 43 -379 l0 -47 -85 -26 c-97
-30 -208 -36 -293 -16 -51 13 -54 12 -92 -13 -79 -52 -120 -136 -135 -271 -8
-72 -36 -138 -102 -236 -28 -41 -55 -90 -61 -109 -17 -54 -24 -132 -14 -165 8
-29 -5 -58 -53 -111 -5 -6 -30 -36 -55 -65 -24 -30 -100 -110 -167 -178 -68
-68 -122 -125 -121 -126 2 -1 26 -7 55 -13 131 -29 560 95 775 224 188 113
341 273 430 448 l30 59 -16 57 c-9 31 -16 89 -16 128 0 65 -2 72 -20 72 -19 0
-20 7 -20 159 l0 160 56 53 c51 48 131 154 122 163 -2 2 -21 -18 -43 -44 -22
-26 -61 -64 -87 -84 l-47 -37 -5 52 c-6 62 -26 317 -26 336 0 6 9 12 20 12 11
0 29 5 39 11 14 10 29 7 76 -15 31 -15 82 -30 111 -33 l54 -6 0 74 c0 257 -55
560 -126 701 -13 26 -24 54 -24 62 0 9 -9 40 -20 70 -38 101 -141 177 -255
190 -27 3 -54 3 -60 1z m179 -1551 c3 -9 6 -76 6 -149 l0 -133 -32 7 c-82 19
-163 84 -192 153 -28 66 -23 75 44 86 32 6 78 20 102 31 54 24 64 25 72 5z
m-372 -69 c-62 -70 -120 -197 -143 -312 -25 -126 -30 -135 -23 -43 6 80 42
202 76 260 30 48 107 140 120 140 5 0 -8 -20 -30 -45z"/>
<path d="M1897 4340 c-15 -12 -31 -38 -37 -58 -8 -25 -10 -232 -8 -650 l3
-614 33 -29 33 -30 495 3 496 3 29 33 29 32 0 630 0 630 -29 32 -29 33 -494 3
c-488 3 -495 2 -521 -18z"/>
<path d="M3206 4209 l-26 -20 0 -398 c0 -373 1 -399 18 -414 17 -15 65 -17
483 -17 255 0 469 4 475 8 31 21 34 54 34 432 l0 381 -25 24 -24 25 -454 0
c-444 0 -455 0 -481 -21z"/>
<path d="M6210 3560 c0 -16 -4 -30 -8 -30 -5 0 -7 -13 -4 -29 l4 -29 46 21
c72 32 199 35 281 7 36 -12 74 -28 85 -37 12 -8 14 -13 6 -10 -85 31 -129 39
-205 35 -73 -3 -92 -8 -161 -43 -66 -33 -87 -51 -126 -103 -67 -89 -92 -175
-86 -296 3 -51 10 -101 16 -111 13 -24 -7 -64 -73 -150 -46 -59 -46 -61 -41
-120 8 -87 66 -197 132 -251 29 -23 58 -44 65 -47 30 -10 -175 -191 -339 -301
l-73 -48 -45 23 c-38 21 -44 28 -44 55 0 17 -9 43 -21 58 l-20 26 -207 0
c-114 0 -212 -4 -218 -8 -29 -19 -34 -56 -34 -235 l0 -183 -101 -24 c-98 -23
-101 -25 -120 -62 -15 -29 -26 -38 -51 -42 -18 -3 -64 -10 -103 -16 -38 -6
-113 -22 -165 -36 -122 -32 -277 -41 -340 -21 l-45 15 78 1 c42 1 77 5 77 9 0
5 -9 17 -21 28 -12 10 -35 46 -52 79 -52 103 -47 202 17 347 6 14 -4 20 -64
39 -59 18 -88 21 -159 16 -47 -3 -103 -12 -125 -22 -21 -9 -39 -15 -41 -13 -1
2 -44 129 -95 283 -98 294 -119 335 -172 335 -17 0 -19 -3 -9 -9 21 -13 -5
-24 -28 -11 -13 6 -221 10 -621 10 -648 0 -659 -1 -676 -52 -4 -12 -6 -36 -6
-53 1 -16 73 -244 159 -505 l158 -475 762 -3 761 -2 44 -25 43 -25 -1117 0
c-763 0 -1126 -3 -1145 -11 -41 -15 -91 -67 -99 -103 -3 -17 -10 -33 -14 -36
-14 -10 12 -71 45 -104 19 -19 52 -40 72 -45 23 -7 160 -11 340 -11 l302 0 24
-52 c31 -67 88 -124 153 -154 l50 -24 1795 -2 1794 -3 67 33 c75 37 129 92
154 158 l16 43 262 3 263 3 40 27 c25 16 49 44 63 72 l22 46 -29 57 c-19 38
-40 64 -63 77 -35 21 -45 21 -1379 26 l-1344 5 129 28 c71 15 147 28 169 28
22 0 288 -2 590 -5 303 -3 740 -3 972 1 l422 6 7 31 c10 39 10 38 17 56 23 54
366 1174 361 1181 -3 5 -1 9 4 9 11 0 49 128 58 195 15 121 -40 267 -134 357
-100 96 -176 125 -348 133 -60 3 -203 15 -319 25 -115 11 -215 20 -222 20 -8
0 -13 -12 -13 -30z"/>
<path d="M5321 3552 c-5 -9 -36 -111 -69 -227 -34 -115 -75 -255 -92 -309 -16
-55 -28 -101 -26 -103 4 -5 44 65 79 139 37 79 56 142 67 221 15 105 52 161
136 209 l41 23 -63 32 c-58 29 -65 30 -73 15z"/>
<path d="M6136 3438 c3 -5 10 -6 15 -3 13 9 11 12 -6 12 -8 0 -12 -4 -9 -9z"/>
<path d="M2142 2918 l3 -33 166 -3 c178 -3 198 3 184 48 -6 19 -14 20 -181 20
l-175 0 3 -32z"/>
<path d="M5096 2793 c-6 -14 -5 -15 5 -6 7 7 10 15 7 18 -3 3 -9 -2 -12 -12z"/>
</g>
</svg>
